<svg width="169" height="206" viewBox="0 0 169 206" fill="none" xmlns="http://www.w3.org/2000/svg">
<path d="M168.3 3C168.3 1.7 167.6 0 163.3 0C159 0 158.2 1.8 158.2 3V7.4C158.2 8.7 158.9 10.4 163.3 10.4C167.7 10.4 168.3 8.7 168.3 7.5V3ZM167.7 7.5C167.7 8.5 167 9.9 163.3 9.9C159.6 9.9 158.9 8.6 158.9 7.5V3C158.9 2 159.6 0.6 163.3 0.6C167 0.6 167.7 2 167.7 3V7.5ZM165.8 4.4V3.7C165.8 2.9 165.3 2 163.5 2H161.3C161.2 2 161.1 2.1 161.1 2.1V8.3C161.1 8.4 161.2 8.4 161.2 8.4H161.6C161.7 8.4 161.7 8.4 161.7 8.3V6.1H163.7L164.7 8.5C164.7 8.6 164.8 8.6 164.9 8.6H165.3C165.4 8.6 165.5 8.5 165.4 8.5L164.4 6C165.2 5.9 165.8 5.2 165.8 4.4ZM165.2 4.4C165.2 5 164.8 5.6 163.5 5.6H161.8V2.6H163.5C164.8 2.6 165.2 3.2 165.2 3.8V4.4ZM162.5 28.4L139.7 5.5L116.9 28.3L139.7 51.1L162.5 28.3V28.4ZM133.5 57.4L110.7 34.5L87.9 57.3L110.7 80.1L133.5 57.4ZM104.5 86.4L81.6 63.6L58.9 86.4L81.7 109.2L104.5 86.4ZM52.6 80.1L75.4 57.3L52.6 34.6L29.8 57.3L52.6 80.1ZM23.6 51.1L46.3 28.3L23.6 5.5L0.8 28.3L23.6 51.1ZM1.3 188.4H0.4C0.0999998 188.4 0 188.5 0 188.8V205C0 205.2 0.0999998 205.3 0.4 205.3H1.4C1.6 205.3 1.7 205.2 1.7 205V199.2C2.9 200.1 4.3 200.6 5.8 200.6C8.1 200.6 9.1 199.3 9.1 197.5V191.4C9.1 189.6 8.1 188.3 5.8 188.3C4.3 188.3 2.8 188.8 1.7 189.8V188.9C1.7 188.5 1.6 188.4 1.3 188.4ZM1.7 191.1C2.7 190.3 4 189.8 5.3 189.7C6.9 189.7 7.4 190.5 7.4 191.5V197.1C7.4 198.1 6.8 198.9 5.3 198.9C4 198.9 2.7 198.4 1.7 197.5V191.1ZM32.9 200.4C36.2 200.4 37.3 199.1 37.3 197.3V196.8C37.3 196.6 37.2 196.5 36.9 196.5H36C35.8 196.5 35.7 196.6 35.7 196.8V197.2C35.7 198.3 35.1 199.1 32.9 199.1C30.7 199.1 30.1 198.3 30.1 197.2V194.5H36.9C37.1 194.5 37.2 194.4 37.2 194.2V194.1V191.2C37.2 189.3 36.1 188.1 32.8 188.1C29.5 188.1 28.4 189.4 28.4 191.2V197.3C28.6 199.2 29.6 200.4 32.9 200.4ZM30.2 193.3V191.4C30.2 190.3 30.8 189.5 33 189.5C35.2 189.5 35.8 190.3 35.8 191.4V193.3H30.2ZM69.8 199.8V191.3C70.9 190.4 72.3 189.8 73.7 189.7C73.9 189.7 74.1 189.6 74.1 189.3V188.5C74.1 188.3 74 188.2 73.8 188.1C73.8 188.1 73.8 188.1 73.7 188.1C72.2 188.2 70.8 188.8 69.8 189.8L69.7 188.6C69.7 188.4 69.6 188.2 69.3 188.2H68.4C68.1 188.2 68 188.3 68 188.6V199.8C68 200 68.1 200.2 68.4 200.2H69.4C69.7 200.2 69.8 200.1 69.8 199.8ZM58.8 199.8V194.1H59.6L64.2 199.8C64.3 200 64.5 200.1 64.8 200.2H65.9C66.1 200.2 66.2 200 66.1 199.8L61 193.4L65.5 188.6C65.7 188.4 65.6 188.2 65.3 188.2H64.2C64 188.2 63.8 188.4 63.6 188.6L59.5 192.8H58.7V183.7C58.7 183.5 58.6 183.3 58.4 183.3H57.4C57.2 183.3 57.1 183.4 57.1 183.7V199.8C57.1 200 57.2 200.2 57.4 200.2H58.4C58.7 200.2 58.7 200.1 58.8 199.8ZM52.6 92.6L29.8 115.4L52.6 138.2L75.4 115.4L52.6 92.6ZM46.5 192.6C46.3 192.6 46.1 192.7 46.1 192.9V193.6C46.1 193.8 46.2 193.9 46.4 194H46.5H53C53.2 194 53.4 193.9 53.4 193.6V193C53.4 192.8 53.3 192.7 53 192.7H46.5V192.6ZM41 183.4C40.7 183.4 40.6 183.5 40.6 183.8V199.9C40.6 200.1 40.7 200.3 41 200.3H42C42.2 200.3 42.3 200.2 42.3 199.9V183.8C42.3 183.6 42.2 183.4 42 183.4H41ZM26.6 199.9L22.7 194.3L26.4 188.8C26.5 188.6 26.5 188.4 26.2 188.4H25.3C25.1 188.4 24.9 188.5 24.8 188.8L21.9 193.1L18.9 188.8C18.8 188.6 18.6 188.5 18.4 188.4H17.3C17.1 188.4 17 188.6 17.1 188.8L20.8 194.3L16.9 200C16.8 200.2 16.9 200.4 17.1 200.4H18.1C18.3 200.4 18.5 200.3 18.6 200L21.6 195.5L24.7 200C24.8 200.2 25 200.3 25.2 200.4H26.3C26.7 200.2 26.8 200.1 26.6 199.9ZM0.8 144.4L23.6 167.2L46.4 144.4L23.6 121.6L0.8 144.4ZM12.6 188.7V199.9C12.6 200.1 12.7 200.3 13 200.3H14C14.2 200.3 14.3 200.2 14.3 199.9V188.7C14.3 188.5 14.2 188.3 14 188.3H13C12.7 188.4 12.6 188.5 12.6 188.7ZM12.6 186C12.6 186.2 12.7 186.4 13 186.4H14C14.2 186.4 14.3 186.3 14.3 186V183.8C14.3 183.6 14.2 183.4 14 183.4H13C12.7 183.4 12.6 183.5 12.6 183.8V186ZM77.8 191.6V191.3C77.8 190.2 78.4 189.5 80.6 189.5C82.8 189.5 83.3 190.3 83.3 191.4V193.6H79.1C77.6 193.4 76.2 194.5 76 196C76 196.1 76 196.3 76 196.4V197.6C76 199.2 77.1 200.4 79.3 200.4C80.7 200.4 82.1 199.9 83.3 199V199.9C83.3 200.1 83.4 200.3 83.7 200.3H84.6C84.8 200.3 84.9 200.2 84.9 199.9V191.2C84.9 189.4 83.9 188.1 80.6 188.1C77.3 188.1 76.4 189.4 76.4 191.2V191.6C76.4 191.9 76.5 192 76.7 192H77.6C77.8 192 77.9 191.9 77.8 191.6ZM83.3 194.9V197.7C82.3 198.5 81 199 79.7 199.1C78.3 199.1 77.6 198.5 77.6 197.4V196.6C77.6 195.5 78.1 194.9 79.4 194.9H83.3ZM87.7 188.5C87.5 188.5 87.4 188.6 87.4 188.9V189.5C87.4 189.7 87.5 189.9 87.7 189.9H89.2V200C89.2 200.2 89.3 200.4 89.6 200.4H90.6C90.9 200.4 91 200.3 91 200V189.9H93.6C93.8 189.9 93.9 189.8 94 189.6V189.5V188.8C94 188.6 93.9 188.5 93.6 188.5H90.9V186.6C90.9 185.5 91.6 184.8 93.7 184.8H93.8C94 184.8 94.1 184.7 94.2 184.5V184.4V183.7C94.2 183.5 94.1 183.4 93.8 183.4H93.7C90.4 183.4 89.2 184.7 89.2 186.5V188.6H89L87.7 188.5ZM131.6 191.5C131.6 191.4 131.6 191.2 131.6 191.1C132.5 190.2 133.8 189.7 135.1 189.7C136.6 189.7 137.2 190.4 137.2 191.5V199.9C137.2 200.1 137.3 200.3 137.6 200.3H138.6C138.8 200.3 139 200.2 139 199.9V191.1C139 189.4 137.9 188.1 135.7 188.1C134.1 188.1 132.6 188.7 131.5 189.7C130.9 188.6 129.7 187.9 128.4 188.1C126.9 188.1 125.5 188.6 124.4 189.5V188.6C124.4 188.4 124.3 188.2 124 188.2H123.1C122.8 188.2 122.7 188.3 122.7 188.6V199.8C122.7 200 122.8 200.2 123.1 200.2H124.1C124.3 200.2 124.4 200.1 124.4 199.8V191C125.4 190.1 126.6 189.7 127.9 189.6C129.4 189.6 130 190.3 130 191.4V199.8C130 200 130.1 200.2 130.4 200.2H131.4C131.6 200.2 131.7 200.1 131.7 199.8V191.4L131.6 191.5ZM142.9 183.4C142.6 183.4 142.5 183.5 142.5 183.8V199.9C142.5 200.1 142.6 200.3 142.9 200.3H143.8C144.1 200.3 144.1 200.2 144.2 199.9V199C145.4 199.9 146.8 200.5 148.3 200.4C150.6 200.4 151.6 199.1 151.6 197.3V191.2C151.6 189.4 150.6 188.1 148.3 188.1C146.8 188.1 145.4 188.6 144.2 189.5V183.7C144.2 183.5 144.1 183.3 143.9 183.3H142.9V183.4ZM144.2 191C145.2 190.1 146.5 189.7 147.8 189.6C149.4 189.6 149.9 190.4 149.9 191.4V197C149.9 198 149.3 198.8 147.8 198.8C146.5 198.8 145.2 198.3 144.2 197.4V191ZM139.7 121.6L116.9 144.4L139.7 167.2L162.5 144.4L139.7 121.6ZM117.2 199V202C117.2 203.1 116.5 203.9 114.4 203.9H111.1C110.9 203.9 110.7 204 110.7 204.2V204.9C110.7 205.1 110.8 205.2 111.1 205.2H114.4C117.7 205.2 118.9 204 118.9 202.1V188.7C118.9 188.5 118.8 188.3 118.6 188.3H117.7C117.4 188.3 117.4 188.4 117.3 188.7V189.6C116.1 188.7 114.7 188.1 113.2 188.1C110.9 188.1 109.9 189.4 109.9 191.2V197.3C109.9 199.1 110.9 200.4 113.2 200.4C114.7 200.4 116.1 199.9 117.2 199ZM117.2 197.5C116.2 198.3 114.9 198.8 113.6 198.9C112.1 198.9 111.5 198.1 111.5 197.1V191.5C111.5 190.5 112.1 189.7 113.6 189.7C114.9 189.7 116.2 190.2 117.2 191.1V197.5ZM87.9 115.4L110.7 138.2L133.5 115.4L110.7 92.6L87.9 115.4ZM95.4 188.5C95.2 188.5 95.1 188.6 95.1 188.9V189.5C95.1 189.7 95.2 189.9 95.4 189.9H96.8V197.3C96.8 199.3 97.8 200.4 101.1 200.4H101.7C101.9 200.4 102.1 200.3 102.1 200V199.3C102.1 199 102 198.9 101.7 198.9H101.3C99.2 198.9 98.5 198.2 98.5 197V189.8H101.2C101.4 189.8 101.5 189.7 101.5 189.4V188.7C101.5 188.5 101.4 188.4 101.2 188.4H98.5V185.8C98.5 185.6 98.4 185.4 98.2 185.4H97.2C97 185.4 96.9 185.5 96.8 185.7V185.8V188.4H96.6L95.4 188.5ZM155.1 183.8V199.9C155.1 200.1 155.2 200.3 155.5 200.3H156.5C156.7 200.3 156.8 200.2 156.8 199.9V191C157.8 190.2 159.1 189.7 160.4 189.6C161.9 189.6 162.5 190.3 162.5 191.4V199.8C162.5 200 162.6 200.2 162.9 200.2H163.9C164.1 200.2 164.2 200.1 164.2 199.8V191C164.2 189.3 163.1 188 160.9 188C159.4 188 158 188.5 156.8 189.4V183.6C156.8 183.4 156.7 183.2 156.5 183.2H155.5C155.3 183.4 155.2 183.5 155.1 183.8Z" fill="#213A8F"/>
</svg>
